<mxfile host="app.diagrams.net" modified="2022-07-18T06:32:52.934Z" agent="5.0 (Windows NT 10.0; Win64; x64) AppleWebKit/537.36 (KHTML, like Gecko) Chrome/103.0.5060.114 Safari/537.36 Edg/103.0.1264.49" etag="q_a7QTmT9DHjaSVMCP74" version="20.0.4" type="github">
  <diagram id="C5RBs43oDa-KdzZeNtuy" name="Page-1">
    <mxGraphModel dx="934" dy="1664" grid="1" gridSize="10" guides="1" tooltips="1" connect="1" arrows="1" fold="1" page="1" pageScale="1" pageWidth="827" pageHeight="1169" math="0" shadow="0">
      <root>
        <mxCell id="WIyWlLk6GJQsqaUBKTNV-0" />
        <mxCell id="WIyWlLk6GJQsqaUBKTNV-1" parent="WIyWlLk6GJQsqaUBKTNV-0" />
        <mxCell id="nPrQg0g38Dgxvw3ITCfk-0" value="" style="edgeStyle=orthogonalEdgeStyle;rounded=0;orthogonalLoop=1;jettySize=auto;html=1;sketch=1;" edge="1" parent="WIyWlLk6GJQsqaUBKTNV-1" source="nPrQg0g38Dgxvw3ITCfk-1" target="nPrQg0g38Dgxvw3ITCfk-3">
          <mxGeometry relative="1" as="geometry" />
        </mxCell>
        <mxCell id="nPrQg0g38Dgxvw3ITCfk-1" value="Alarm input (kafka)" style="rounded=1;whiteSpace=wrap;html=1;fontSize=12;glass=0;strokeWidth=1;shadow=0;sketch=1;" vertex="1" parent="WIyWlLk6GJQsqaUBKTNV-1">
          <mxGeometry x="310" y="80" width="120" height="40" as="geometry" />
        </mxCell>
        <mxCell id="nPrQg0g38Dgxvw3ITCfk-2" value="" style="edgeStyle=orthogonalEdgeStyle;rounded=0;orthogonalLoop=1;jettySize=auto;html=1;sketch=1;" edge="1" parent="WIyWlLk6GJQsqaUBKTNV-1" source="nPrQg0g38Dgxvw3ITCfk-3" target="nPrQg0g38Dgxvw3ITCfk-11">
          <mxGeometry relative="1" as="geometry" />
        </mxCell>
        <mxCell id="nPrQg0g38Dgxvw3ITCfk-3" value="合并告警处理" style="rounded=1;whiteSpace=wrap;html=1;fontSize=12;glass=0;strokeWidth=1;shadow=0;sketch=1;" vertex="1" parent="WIyWlLk6GJQsqaUBKTNV-1">
          <mxGeometry x="310" y="170" width="120" height="40" as="geometry" />
        </mxCell>
        <mxCell id="nPrQg0g38Dgxvw3ITCfk-4" value="Alarms" style="text;html=1;align=center;verticalAlign=middle;resizable=0;points=[];autosize=1;strokeColor=none;fillColor=none;sketch=1;" vertex="1" parent="WIyWlLk6GJQsqaUBKTNV-1">
          <mxGeometry x="370" y="130" width="60" height="30" as="geometry" />
        </mxCell>
        <mxCell id="nPrQg0g38Dgxvw3ITCfk-7" value="" style="edgeStyle=orthogonalEdgeStyle;rounded=0;orthogonalLoop=1;jettySize=auto;html=1;sketch=1;entryX=0.5;entryY=0;entryDx=0;entryDy=0;" edge="1" parent="WIyWlLk6GJQsqaUBKTNV-1" source="nPrQg0g38Dgxvw3ITCfk-11" target="nPrQg0g38Dgxvw3ITCfk-16">
          <mxGeometry relative="1" as="geometry">
            <mxPoint x="370" y="360" as="targetPoint" />
          </mxGeometry>
        </mxCell>
        <mxCell id="nPrQg0g38Dgxvw3ITCfk-8" value="Create" style="edgeLabel;html=1;align=center;verticalAlign=middle;resizable=0;points=[];sketch=1;" vertex="1" connectable="0" parent="nPrQg0g38Dgxvw3ITCfk-7">
          <mxGeometry x="-0.2419" relative="1" as="geometry">
            <mxPoint as="offset" />
          </mxGeometry>
        </mxCell>
        <mxCell id="nPrQg0g38Dgxvw3ITCfk-9" style="edgeStyle=orthogonalEdgeStyle;rounded=0;orthogonalLoop=1;jettySize=auto;html=1;sketch=1;" edge="1" parent="WIyWlLk6GJQsqaUBKTNV-1" source="nPrQg0g38Dgxvw3ITCfk-11" target="nPrQg0g38Dgxvw3ITCfk-14">
          <mxGeometry relative="1" as="geometry" />
        </mxCell>
        <mxCell id="nPrQg0g38Dgxvw3ITCfk-10" value="Update" style="edgeLabel;html=1;align=center;verticalAlign=middle;resizable=0;points=[];sketch=1;" vertex="1" connectable="0" parent="nPrQg0g38Dgxvw3ITCfk-9">
          <mxGeometry x="0.1156" y="-2" relative="1" as="geometry">
            <mxPoint x="-42" y="-2" as="offset" />
          </mxGeometry>
        </mxCell>
        <mxCell id="nPrQg0g38Dgxvw3ITCfk-11" value="On Creation?" style="rhombus;whiteSpace=wrap;html=1;sketch=1;" vertex="1" parent="WIyWlLk6GJQsqaUBKTNV-1">
          <mxGeometry x="330" y="250" width="80" height="60" as="geometry" />
        </mxCell>
        <mxCell id="nPrQg0g38Dgxvw3ITCfk-12" value="MergedAlarms" style="text;html=1;align=center;verticalAlign=middle;resizable=0;points=[];autosize=1;strokeColor=none;fillColor=none;sketch=1;" vertex="1" parent="WIyWlLk6GJQsqaUBKTNV-1">
          <mxGeometry x="370" y="220" width="100" height="30" as="geometry" />
        </mxCell>
        <mxCell id="nPrQg0g38Dgxvw3ITCfk-13" style="edgeStyle=orthogonalEdgeStyle;rounded=0;orthogonalLoop=1;jettySize=auto;html=1;sketch=1;" edge="1" parent="WIyWlLk6GJQsqaUBKTNV-1" source="nPrQg0g38Dgxvw3ITCfk-14" target="nPrQg0g38Dgxvw3ITCfk-33">
          <mxGeometry relative="1" as="geometry">
            <Array as="points">
              <mxPoint x="590" y="980" />
              <mxPoint x="370" y="980" />
            </Array>
          </mxGeometry>
        </mxCell>
        <mxCell id="nPrQg0g38Dgxvw3ITCfk-14" value="更新XDR安全事件" style="rounded=1;whiteSpace=wrap;html=1;fontSize=12;glass=0;strokeWidth=1;shadow=0;sketch=1;" vertex="1" parent="WIyWlLk6GJQsqaUBKTNV-1">
          <mxGeometry x="530" y="360" width="120" height="40" as="geometry" />
        </mxCell>
        <mxCell id="nPrQg0g38Dgxvw3ITCfk-15" value="" style="edgeStyle=orthogonalEdgeStyle;rounded=0;orthogonalLoop=1;jettySize=auto;html=1;sketch=1;" edge="1" parent="WIyWlLk6GJQsqaUBKTNV-1" source="nPrQg0g38Dgxvw3ITCfk-16" target="nPrQg0g38Dgxvw3ITCfk-21">
          <mxGeometry relative="1" as="geometry" />
        </mxCell>
        <mxCell id="nPrQg0g38Dgxvw3ITCfk-16" value="引擎1&lt;br&gt;尝试匹配已有XDR安全事件" style="rounded=1;whiteSpace=wrap;html=1;fontSize=12;glass=0;strokeWidth=1;shadow=0;sketch=1;" vertex="1" parent="WIyWlLk6GJQsqaUBKTNV-1">
          <mxGeometry x="310" y="434" width="120" height="50" as="geometry" />
        </mxCell>
        <mxCell id="nPrQg0g38Dgxvw3ITCfk-17" value="" style="edgeStyle=orthogonalEdgeStyle;rounded=0;orthogonalLoop=1;jettySize=auto;html=1;sketch=1;" edge="1" parent="WIyWlLk6GJQsqaUBKTNV-1" source="nPrQg0g38Dgxvw3ITCfk-21" target="nPrQg0g38Dgxvw3ITCfk-63">
          <mxGeometry relative="1" as="geometry">
            <Array as="points" />
          </mxGeometry>
        </mxCell>
        <mxCell id="nPrQg0g38Dgxvw3ITCfk-18" value="No" style="edgeLabel;html=1;align=center;verticalAlign=middle;resizable=0;points=[];sketch=1;" vertex="1" connectable="0" parent="nPrQg0g38Dgxvw3ITCfk-17">
          <mxGeometry x="-0.3785" relative="1" as="geometry">
            <mxPoint y="-4" as="offset" />
          </mxGeometry>
        </mxCell>
        <mxCell id="nPrQg0g38Dgxvw3ITCfk-19" style="edgeStyle=orthogonalEdgeStyle;rounded=0;orthogonalLoop=1;jettySize=auto;html=1;sketch=1;" edge="1" parent="WIyWlLk6GJQsqaUBKTNV-1" source="nPrQg0g38Dgxvw3ITCfk-21" target="nPrQg0g38Dgxvw3ITCfk-26">
          <mxGeometry relative="1" as="geometry" />
        </mxCell>
        <mxCell id="nPrQg0g38Dgxvw3ITCfk-20" value="Yes" style="edgeLabel;html=1;align=center;verticalAlign=middle;resizable=0;points=[];sketch=1;" vertex="1" connectable="0" parent="nPrQg0g38Dgxvw3ITCfk-19">
          <mxGeometry x="-0.5509" y="-2" relative="1" as="geometry">
            <mxPoint x="-3" y="2" as="offset" />
          </mxGeometry>
        </mxCell>
        <mxCell id="nPrQg0g38Dgxvw3ITCfk-21" value="Any Match?" style="rhombus;whiteSpace=wrap;html=1;sketch=1;" vertex="1" parent="WIyWlLk6GJQsqaUBKTNV-1">
          <mxGeometry x="330" y="517" width="80" height="60" as="geometry" />
        </mxCell>
        <mxCell id="nPrQg0g38Dgxvw3ITCfk-22" value="" style="edgeStyle=orthogonalEdgeStyle;rounded=0;orthogonalLoop=1;jettySize=auto;html=1;sketch=1;" edge="1" parent="WIyWlLk6GJQsqaUBKTNV-1" source="nPrQg0g38Dgxvw3ITCfk-24" target="nPrQg0g38Dgxvw3ITCfk-37">
          <mxGeometry relative="1" as="geometry" />
        </mxCell>
        <mxCell id="nPrQg0g38Dgxvw3ITCfk-24" value="创建XDR安全事件" style="rounded=1;whiteSpace=wrap;html=1;fontSize=12;glass=0;strokeWidth=1;shadow=0;sketch=1;" vertex="1" parent="WIyWlLk6GJQsqaUBKTNV-1">
          <mxGeometry x="310" y="774" width="120" height="40" as="geometry" />
        </mxCell>
        <mxCell id="nPrQg0g38Dgxvw3ITCfk-25" style="edgeStyle=orthogonalEdgeStyle;rounded=0;orthogonalLoop=1;jettySize=auto;html=1;entryX=0.5;entryY=0;entryDx=0;entryDy=0;sketch=1;" edge="1" parent="WIyWlLk6GJQsqaUBKTNV-1" source="nPrQg0g38Dgxvw3ITCfk-26" target="nPrQg0g38Dgxvw3ITCfk-33">
          <mxGeometry relative="1" as="geometry">
            <Array as="points">
              <mxPoint x="190" y="980" />
              <mxPoint x="370" y="980" />
            </Array>
          </mxGeometry>
        </mxCell>
        <mxCell id="nPrQg0g38Dgxvw3ITCfk-26" value="更新XDR安全事件" style="rounded=1;whiteSpace=wrap;html=1;fontSize=12;glass=0;strokeWidth=1;shadow=0;sketch=1;" vertex="1" parent="WIyWlLk6GJQsqaUBKTNV-1">
          <mxGeometry x="130" y="772" width="120" height="40" as="geometry" />
        </mxCell>
        <mxCell id="nPrQg0g38Dgxvw3ITCfk-27" value="" style="edgeStyle=orthogonalEdgeStyle;rounded=0;orthogonalLoop=1;jettySize=auto;html=1;sketch=1;" edge="1" parent="WIyWlLk6GJQsqaUBKTNV-1" source="nPrQg0g38Dgxvw3ITCfk-30" target="nPrQg0g38Dgxvw3ITCfk-33">
          <mxGeometry relative="1" as="geometry" />
        </mxCell>
        <mxCell id="nPrQg0g38Dgxvw3ITCfk-28" style="edgeStyle=orthogonalEdgeStyle;rounded=0;orthogonalLoop=1;jettySize=auto;html=1;dashed=1;entryX=0;entryY=0.5;entryDx=0;entryDy=0;sketch=1;" edge="1" parent="WIyWlLk6GJQsqaUBKTNV-1" source="nPrQg0g38Dgxvw3ITCfk-30" target="nPrQg0g38Dgxvw3ITCfk-41">
          <mxGeometry relative="1" as="geometry">
            <mxPoint x="820" y="269" as="targetPoint" />
            <Array as="points">
              <mxPoint x="770" y="932" />
              <mxPoint x="770" y="190" />
            </Array>
          </mxGeometry>
        </mxCell>
        <mxCell id="nPrQg0g38Dgxvw3ITCfk-29" value="Emit once" style="edgeLabel;html=1;align=center;verticalAlign=middle;resizable=0;points=[];" vertex="1" connectable="0" parent="nPrQg0g38Dgxvw3ITCfk-28">
          <mxGeometry x="-0.8831" y="1" relative="1" as="geometry">
            <mxPoint as="offset" />
          </mxGeometry>
        </mxCell>
        <mxCell id="nPrQg0g38Dgxvw3ITCfk-30" value="创建异步搜索任务" style="rounded=1;whiteSpace=wrap;html=1;fontSize=12;glass=0;strokeWidth=1;shadow=0;sketch=1;" vertex="1" parent="WIyWlLk6GJQsqaUBKTNV-1">
          <mxGeometry x="310" y="912" width="120" height="40" as="geometry" />
        </mxCell>
        <mxCell id="nPrQg0g38Dgxvw3ITCfk-31" value="" style="edgeStyle=orthogonalEdgeStyle;rounded=0;orthogonalLoop=1;jettySize=auto;html=1;sketch=1;" edge="1" parent="WIyWlLk6GJQsqaUBKTNV-1" source="nPrQg0g38Dgxvw3ITCfk-32" target="nPrQg0g38Dgxvw3ITCfk-1">
          <mxGeometry relative="1" as="geometry" />
        </mxCell>
        <mxCell id="nPrQg0g38Dgxvw3ITCfk-32" value="Start" style="ellipse;whiteSpace=wrap;html=1;sketch=1;" vertex="1" parent="WIyWlLk6GJQsqaUBKTNV-1">
          <mxGeometry x="310" y="-20" width="120" height="60" as="geometry" />
        </mxCell>
        <mxCell id="nPrQg0g38Dgxvw3ITCfk-33" value="End" style="ellipse;whiteSpace=wrap;html=1;sketch=1;" vertex="1" parent="WIyWlLk6GJQsqaUBKTNV-1">
          <mxGeometry x="310" y="1012" width="120" height="60" as="geometry" />
        </mxCell>
        <mxCell id="nPrQg0g38Dgxvw3ITCfk-34" value="" style="edgeStyle=orthogonalEdgeStyle;rounded=0;orthogonalLoop=1;jettySize=auto;html=1;sketch=1;" edge="1" parent="WIyWlLk6GJQsqaUBKTNV-1" source="nPrQg0g38Dgxvw3ITCfk-37" target="nPrQg0g38Dgxvw3ITCfk-30">
          <mxGeometry relative="1" as="geometry" />
        </mxCell>
        <mxCell id="nPrQg0g38Dgxvw3ITCfk-35" style="edgeStyle=orthogonalEdgeStyle;rounded=0;orthogonalLoop=1;jettySize=auto;html=1;sketch=1;entryX=1;entryY=0.75;entryDx=0;entryDy=0;" edge="1" parent="WIyWlLk6GJQsqaUBKTNV-1" source="nPrQg0g38Dgxvw3ITCfk-37" target="nPrQg0g38Dgxvw3ITCfk-16">
          <mxGeometry relative="1" as="geometry">
            <Array as="points">
              <mxPoint x="550" y="860" />
              <mxPoint x="550" y="472" />
            </Array>
          </mxGeometry>
        </mxCell>
        <mxCell id="nPrQg0g38Dgxvw3ITCfk-36" value="更新EPL" style="edgeLabel;html=1;align=center;verticalAlign=middle;resizable=0;points=[];sketch=1;" vertex="1" connectable="0" parent="nPrQg0g38Dgxvw3ITCfk-35">
          <mxGeometry x="0.2876" y="3" relative="1" as="geometry">
            <mxPoint x="3" y="59" as="offset" />
          </mxGeometry>
        </mxCell>
        <mxCell id="nPrQg0g38Dgxvw3ITCfk-37" value="创建其他入口告警&lt;br&gt;捕获规则" style="rounded=1;whiteSpace=wrap;html=1;fontSize=12;glass=0;strokeWidth=1;shadow=0;sketch=1;" vertex="1" parent="WIyWlLk6GJQsqaUBKTNV-1">
          <mxGeometry x="310" y="842" width="120" height="40" as="geometry" />
        </mxCell>
        <mxCell id="nPrQg0g38Dgxvw3ITCfk-38" value="" style="edgeStyle=orthogonalEdgeStyle;rounded=0;orthogonalLoop=1;jettySize=auto;html=1;sketch=1;" edge="1" parent="WIyWlLk6GJQsqaUBKTNV-1" source="nPrQg0g38Dgxvw3ITCfk-41" target="nPrQg0g38Dgxvw3ITCfk-50">
          <mxGeometry relative="1" as="geometry">
            <mxPoint x="920" y="260" as="targetPoint" />
          </mxGeometry>
        </mxCell>
        <mxCell id="nPrQg0g38Dgxvw3ITCfk-39" value="Scheduler" style="edgeLabel;html=1;align=center;verticalAlign=middle;resizable=0;points=[];" vertex="1" connectable="0" parent="nPrQg0g38Dgxvw3ITCfk-38">
          <mxGeometry x="-0.765" y="1" relative="1" as="geometry">
            <mxPoint x="-1" y="18" as="offset" />
          </mxGeometry>
        </mxCell>
        <mxCell id="nPrQg0g38Dgxvw3ITCfk-40" value="" style="edgeStyle=orthogonalEdgeStyle;rounded=0;sketch=1;orthogonalLoop=1;jettySize=auto;html=1;endArrow=none;endFill=0;" edge="1" parent="WIyWlLk6GJQsqaUBKTNV-1" source="nPrQg0g38Dgxvw3ITCfk-41" target="nPrQg0g38Dgxvw3ITCfk-49">
          <mxGeometry relative="1" as="geometry" />
        </mxCell>
        <mxCell id="nPrQg0g38Dgxvw3ITCfk-41" value="SearchTask queue" style="rounded=1;whiteSpace=wrap;html=1;fontSize=12;glass=0;strokeWidth=1;shadow=0;sketch=1;" vertex="1" parent="WIyWlLk6GJQsqaUBKTNV-1">
          <mxGeometry x="860" y="170" width="120" height="40" as="geometry" />
        </mxCell>
        <mxCell id="nPrQg0g38Dgxvw3ITCfk-42" value="" style="edgeStyle=orthogonalEdgeStyle;rounded=0;orthogonalLoop=1;jettySize=auto;html=1;sketch=1;" edge="1" parent="WIyWlLk6GJQsqaUBKTNV-1" source="nPrQg0g38Dgxvw3ITCfk-50" target="nPrQg0g38Dgxvw3ITCfk-44">
          <mxGeometry relative="1" as="geometry">
            <mxPoint x="920" y="335" as="sourcePoint" />
          </mxGeometry>
        </mxCell>
        <mxCell id="nPrQg0g38Dgxvw3ITCfk-43" value="" style="edgeStyle=orthogonalEdgeStyle;rounded=0;orthogonalLoop=1;jettySize=auto;html=1;sketch=1;" edge="1" parent="WIyWlLk6GJQsqaUBKTNV-1" source="nPrQg0g38Dgxvw3ITCfk-44" target="nPrQg0g38Dgxvw3ITCfk-47">
          <mxGeometry relative="1" as="geometry" />
        </mxCell>
        <mxCell id="nPrQg0g38Dgxvw3ITCfk-44" value="Apply SearchTask(s)" style="rounded=1;whiteSpace=wrap;html=1;fontSize=12;glass=0;strokeWidth=1;shadow=0;sketch=1;" vertex="1" parent="WIyWlLk6GJQsqaUBKTNV-1">
          <mxGeometry x="860" y="330" width="120" height="40" as="geometry" />
        </mxCell>
        <mxCell id="nPrQg0g38Dgxvw3ITCfk-45" style="edgeStyle=orthogonalEdgeStyle;rounded=0;orthogonalLoop=1;jettySize=auto;html=1;entryX=1;entryY=0.75;entryDx=0;entryDy=0;exitX=1;exitY=0.5;exitDx=0;exitDy=0;sketch=1;" edge="1" parent="WIyWlLk6GJQsqaUBKTNV-1" source="nPrQg0g38Dgxvw3ITCfk-47" target="nPrQg0g38Dgxvw3ITCfk-41">
          <mxGeometry relative="1" as="geometry">
            <Array as="points">
              <mxPoint x="1050" y="414" />
              <mxPoint x="1050" y="200" />
            </Array>
          </mxGeometry>
        </mxCell>
        <mxCell id="nPrQg0g38Dgxvw3ITCfk-46" value="" style="edgeStyle=orthogonalEdgeStyle;rounded=0;orthogonalLoop=1;jettySize=auto;html=1;sketch=1;" edge="1" parent="WIyWlLk6GJQsqaUBKTNV-1" source="nPrQg0g38Dgxvw3ITCfk-47" target="nPrQg0g38Dgxvw3ITCfk-53">
          <mxGeometry relative="1" as="geometry" />
        </mxCell>
        <mxCell id="nPrQg0g38Dgxvw3ITCfk-47" value="Update &lt;br&gt;SearchTask(s) Timer" style="rounded=1;whiteSpace=wrap;html=1;fontSize=12;glass=0;strokeWidth=1;shadow=0;sketch=1;" vertex="1" parent="WIyWlLk6GJQsqaUBKTNV-1">
          <mxGeometry x="860" y="394" width="120" height="40" as="geometry" />
        </mxCell>
        <mxCell id="nPrQg0g38Dgxvw3ITCfk-48" value="" style="edgeStyle=none;rounded=0;sketch=1;orthogonalLoop=1;jettySize=auto;html=1;fontSize=12;endArrow=none;endFill=0;" edge="1" parent="WIyWlLk6GJQsqaUBKTNV-1" source="nPrQg0g38Dgxvw3ITCfk-49" target="nPrQg0g38Dgxvw3ITCfk-41">
          <mxGeometry relative="1" as="geometry" />
        </mxCell>
        <mxCell id="nPrQg0g38Dgxvw3ITCfk-49" value="SearchTask(s)" style="shape=parallelogram;perimeter=parallelogramPerimeter;whiteSpace=wrap;html=1;fixedSize=1;sketch=1;" vertex="1" parent="WIyWlLk6GJQsqaUBKTNV-1">
          <mxGeometry x="860" y="110" width="120" height="35" as="geometry" />
        </mxCell>
        <mxCell id="nPrQg0g38Dgxvw3ITCfk-50" value="Fetch SearchTask(s) by timer" style="rounded=1;whiteSpace=wrap;html=1;fontSize=12;glass=0;strokeWidth=1;shadow=0;sketch=1;" vertex="1" parent="WIyWlLk6GJQsqaUBKTNV-1">
          <mxGeometry x="860" y="270" width="120" height="40" as="geometry" />
        </mxCell>
        <mxCell id="nPrQg0g38Dgxvw3ITCfk-51" style="edgeStyle=orthogonalEdgeStyle;rounded=0;orthogonalLoop=1;jettySize=auto;html=1;entryX=0.75;entryY=0;entryDx=0;entryDy=0;exitX=0;exitY=0.25;exitDx=0;exitDy=0;sketch=1;" edge="1" parent="WIyWlLk6GJQsqaUBKTNV-1" source="nPrQg0g38Dgxvw3ITCfk-53" target="nPrQg0g38Dgxvw3ITCfk-14">
          <mxGeometry relative="1" as="geometry">
            <mxPoint x="870" y="440" as="sourcePoint" />
            <Array as="points">
              <mxPoint x="710" y="490" />
              <mxPoint x="710" y="310" />
              <mxPoint x="620" y="310" />
            </Array>
          </mxGeometry>
        </mxCell>
        <mxCell id="nPrQg0g38Dgxvw3ITCfk-84" value="合入" style="edgeLabel;html=1;align=center;verticalAlign=middle;resizable=0;points=[];" vertex="1" connectable="0" parent="nPrQg0g38Dgxvw3ITCfk-51">
          <mxGeometry x="0.7067" y="-1" relative="1" as="geometry">
            <mxPoint x="21" y="1" as="offset" />
          </mxGeometry>
        </mxCell>
        <mxCell id="nPrQg0g38Dgxvw3ITCfk-76" style="edgeStyle=orthogonalEdgeStyle;rounded=0;orthogonalLoop=1;jettySize=auto;html=1;exitX=0;exitY=0.5;exitDx=0;exitDy=0;entryX=1;entryY=0.25;entryDx=0;entryDy=0;sketch=1;" edge="1" parent="WIyWlLk6GJQsqaUBKTNV-1" source="nPrQg0g38Dgxvw3ITCfk-77" target="nPrQg0g38Dgxvw3ITCfk-16">
          <mxGeometry relative="1" as="geometry" />
        </mxCell>
        <mxCell id="nPrQg0g38Dgxvw3ITCfk-83" value="更新EPL" style="edgeLabel;html=1;align=center;verticalAlign=middle;resizable=0;points=[];" vertex="1" connectable="0" parent="nPrQg0g38Dgxvw3ITCfk-76">
          <mxGeometry x="-0.3581" y="-5" relative="1" as="geometry">
            <mxPoint x="16" y="5" as="offset" />
          </mxGeometry>
        </mxCell>
        <mxCell id="nPrQg0g38Dgxvw3ITCfk-78" value="" style="edgeStyle=orthogonalEdgeStyle;rounded=0;sketch=1;orthogonalLoop=1;jettySize=auto;html=1;" edge="1" parent="WIyWlLk6GJQsqaUBKTNV-1" source="nPrQg0g38Dgxvw3ITCfk-53" target="nPrQg0g38Dgxvw3ITCfk-77">
          <mxGeometry relative="1" as="geometry" />
        </mxCell>
        <mxCell id="nPrQg0g38Dgxvw3ITCfk-53" value="搜索到的合并告警/日志" style="rounded=1;whiteSpace=wrap;html=1;fontSize=12;glass=0;strokeWidth=1;shadow=0;sketch=1;" vertex="1" parent="WIyWlLk6GJQsqaUBKTNV-1">
          <mxGeometry x="860" y="480" width="120" height="40" as="geometry" />
        </mxCell>
        <mxCell id="nPrQg0g38Dgxvw3ITCfk-61" value="" style="edgeStyle=none;rounded=0;sketch=1;orthogonalLoop=1;jettySize=auto;html=1;fontSize=12;endArrow=classic;endFill=1;" edge="1" parent="WIyWlLk6GJQsqaUBKTNV-1" source="nPrQg0g38Dgxvw3ITCfk-63" target="nPrQg0g38Dgxvw3ITCfk-68">
          <mxGeometry relative="1" as="geometry" />
        </mxCell>
        <mxCell id="nPrQg0g38Dgxvw3ITCfk-63" value="引擎2&lt;br&gt;尝试匹配XDR安全事件入口规则" style="rounded=1;whiteSpace=wrap;html=1;fontSize=12;glass=0;strokeWidth=1;shadow=0;sketch=1;" vertex="1" parent="WIyWlLk6GJQsqaUBKTNV-1">
          <mxGeometry x="310" y="610" width="120" height="50" as="geometry" />
        </mxCell>
        <mxCell id="nPrQg0g38Dgxvw3ITCfk-64" value="" style="edgeStyle=none;rounded=0;sketch=1;orthogonalLoop=1;jettySize=auto;html=1;fontSize=12;endArrow=classic;endFill=1;" edge="1" parent="WIyWlLk6GJQsqaUBKTNV-1" source="nPrQg0g38Dgxvw3ITCfk-68" target="nPrQg0g38Dgxvw3ITCfk-24">
          <mxGeometry relative="1" as="geometry" />
        </mxCell>
        <mxCell id="nPrQg0g38Dgxvw3ITCfk-65" value="Yes" style="edgeLabel;html=1;align=center;verticalAlign=middle;resizable=0;points=[];fontSize=12;" vertex="1" connectable="0" parent="nPrQg0g38Dgxvw3ITCfk-64">
          <mxGeometry x="-0.5222" y="-2" relative="1" as="geometry">
            <mxPoint x="2" y="4" as="offset" />
          </mxGeometry>
        </mxCell>
        <mxCell id="nPrQg0g38Dgxvw3ITCfk-66" value="" style="edgeStyle=none;rounded=0;sketch=1;orthogonalLoop=1;jettySize=auto;html=1;fontSize=12;endArrow=classic;endFill=1;" edge="1" parent="WIyWlLk6GJQsqaUBKTNV-1" source="nPrQg0g38Dgxvw3ITCfk-68" target="nPrQg0g38Dgxvw3ITCfk-69">
          <mxGeometry relative="1" as="geometry" />
        </mxCell>
        <mxCell id="nPrQg0g38Dgxvw3ITCfk-67" value="No" style="edgeLabel;html=1;align=center;verticalAlign=middle;resizable=0;points=[];fontSize=12;" vertex="1" connectable="0" parent="nPrQg0g38Dgxvw3ITCfk-66">
          <mxGeometry x="-0.4349" y="1" relative="1" as="geometry">
            <mxPoint x="9" y="1" as="offset" />
          </mxGeometry>
        </mxCell>
        <mxCell id="nPrQg0g38Dgxvw3ITCfk-68" value="Any Match?" style="rhombus;whiteSpace=wrap;html=1;sketch=1;" vertex="1" parent="WIyWlLk6GJQsqaUBKTNV-1">
          <mxGeometry x="330" y="680" width="80" height="60" as="geometry" />
        </mxCell>
        <mxCell id="nPrQg0g38Dgxvw3ITCfk-69" value="Discard" style="rounded=1;whiteSpace=wrap;html=1;fontSize=12;glass=0;strokeWidth=1;shadow=0;sketch=1;" vertex="1" parent="WIyWlLk6GJQsqaUBKTNV-1">
          <mxGeometry x="452" y="690" width="66" height="40" as="geometry" />
        </mxCell>
        <mxCell id="nPrQg0g38Dgxvw3ITCfk-72" value="Main thread" style="text;html=1;strokeColor=none;fillColor=none;align=center;verticalAlign=middle;whiteSpace=wrap;rounded=0;sketch=1;fontSize=24;" vertex="1" parent="WIyWlLk6GJQsqaUBKTNV-1">
          <mxGeometry x="295" y="-70" width="150" height="30" as="geometry" />
        </mxCell>
        <mxCell id="nPrQg0g38Dgxvw3ITCfk-73" value="Rolling search thread" style="text;html=1;strokeColor=none;fillColor=none;align=center;verticalAlign=middle;whiteSpace=wrap;rounded=0;sketch=1;fontSize=24;" vertex="1" parent="WIyWlLk6GJQsqaUBKTNV-1">
          <mxGeometry x="800" y="50" width="233" height="30" as="geometry" />
        </mxCell>
        <mxCell id="nPrQg0g38Dgxvw3ITCfk-80" style="edgeStyle=orthogonalEdgeStyle;rounded=0;sketch=1;orthogonalLoop=1;jettySize=auto;html=1;entryX=1;entryY=0.25;entryDx=0;entryDy=0;exitX=1;exitY=0.5;exitDx=0;exitDy=0;" edge="1" parent="WIyWlLk6GJQsqaUBKTNV-1" source="nPrQg0g38Dgxvw3ITCfk-77" target="nPrQg0g38Dgxvw3ITCfk-41">
          <mxGeometry relative="1" as="geometry">
            <mxPoint x="1090" y="200" as="targetPoint" />
            <Array as="points">
              <mxPoint x="1110" y="565" />
              <mxPoint x="1110" y="180" />
            </Array>
          </mxGeometry>
        </mxCell>
        <mxCell id="nPrQg0g38Dgxvw3ITCfk-77" value="Create Sub SearchTask(s)" style="rounded=1;whiteSpace=wrap;html=1;fontSize=12;glass=0;strokeWidth=1;shadow=0;sketch=1;" vertex="1" parent="WIyWlLk6GJQsqaUBKTNV-1">
          <mxGeometry x="860" y="545" width="120" height="40" as="geometry" />
        </mxCell>
      </root>
    </mxGraphModel>
  </diagram>
</mxfile>
